# xmcd
#
# Track frame offsets:
#	150
#	15422
#	31025
#	50650
#	72527
#	88902
#	107185
#	126442
#	141870
#	158255
#	175742
#	191172
#	205740
#	247117
#
# Disc length: 3553 seconds
#
# Revision: 0
# Processed by: cddbd v1.4PL0 Copyright (c) Steve Scherf et al.
# Submitted via: dBpowerAMP V4.0
#
DISCID=c40ddf0e
DTITLE=Wando - S.O.S de Amor
DYEAR=2000
DGENRE=samba
TTITLE0=Cada um por si
TTITLE1=A proxima vitima
TTITLE2=Sempre será
TTITLE3=Amor secreto
TTITLE4=Me ligue a cobrar
TTITLE5=Meu borogodo
TTITLE6=Toda mulher
TTITLE7=Foi voce quem quis assim
TTITLE8=Eu acho que estou predendo voce
TTITLE9=Aquele amor que faz gostoso me deixou
TTITLE10=Essa tal liberdade
TTITLE11=O que eu vou dizer para o meu corpo
TTITLE12=Moça/Obsceno
TTITLE13=Fogo e Paixão
EXTD=Wando Ao vivo - S.O.S de amor
EXTT0=
EXTT1=
EXTT2=
EXTT3=
EXTT4=
EXTT5=
EXTT6=
EXTT7=
EXTT8=
EXTT9=
EXTT10=
EXTT11=
EXTT12=
EXTT13=
PLAYORDER=
